<svg id="Group_1182" data-name="Group 1182" xmlns="http://www.w3.org/2000/svg" width="10.083" height="13.46" viewBox="0 0 10.083 13.46">
  <g id="Group_509" data-name="Group 509" transform="translate(0.087 4.698)">
    <g id="Group_508" data-name="Group 508" transform="translate(3.834 0.026)">
      <path id="Path_84" data-name="Path 84" d="M.609,7.9H3.653L4.262,0,2.132,1.423,0,0Z" transform="matrix(-0.966, 0.259, -0.259, -0.966, 6.162, 7.633)" fill="#707070"/>
    </g>
    <g id="Group_507" data-name="Group 507" transform="translate(0 0)">
      <path id="Path_89" data-name="Path 89" d="M.609,7.9H3.653L4.262,0,2.132,1.423,0,0Z" transform="matrix(-0.966, -0.259, 0.259, -0.966, 4.117, 8.736)" fill="#707070"/>
    </g>
  </g>
  <g id="Path_92" data-name="Path 92" transform="translate(0 0)" fill="#cfa887">
    <path d="M 4.870648860931396 8.740444183349609 C 2.736368894577026 8.740444183349609 0.9999988675117493 7.004274368286133 0.9999988675117493 4.870224475860596 C 0.9999988675117493 2.736174583435059 2.736368894577026 1.000004529953003 4.870648860931396 1.000004529953003 C 7.004929065704346 1.000004529953003 8.741298675537109 2.736174583435059 8.741298675537109 4.870224475860596 C 8.741298675537109 7.004274368286133 7.004929065704346 8.740444183349609 4.870648860931396 8.740444183349609 Z" stroke="none"/>
    <path d="M 4.870648860931396 2.000004291534424 C 3.287768840789795 2.000004291534424 1.999999046325684 3.28758430480957 1.999999046325684 4.870224475860596 C 1.999999046325684 6.452864646911621 3.287768840789795 7.740444183349609 4.870648860931396 7.740444183349609 C 6.453528881072998 7.740444183349609 7.741298675537109 6.452864646911621 7.741298675537109 4.870224475860596 C 7.741298675537109 3.28758430480957 6.453528881072998 2.000004291534424 4.870648860931396 2.000004291534424 M 4.870648860931396 4.76837158203125e-06 C 7.560638904571533 4.76837158203125e-06 9.741298675537109 2.180474281311035 9.741298675537109 4.870224475860596 C 9.741298675537109 7.559974670410156 7.560638904571533 9.740444183349609 4.870648860931396 9.740444183349609 C 2.180668830871582 9.740444183349609 -9.5367431640625e-07 7.559974670410156 -9.5367431640625e-07 4.870224475860596 C -9.5367431640625e-07 2.180474281311035 2.180668830871582 4.76837158203125e-06 4.870648860931396 4.76837158203125e-06 Z" stroke="none" fill="#707070"/>
  </g>
</svg>
