<svg id="Group_1183" data-name="Group 1183" xmlns="http://www.w3.org/2000/svg" width="10.083" height="13.461" viewBox="0 0 10.083 13.461">
  <g id="Group_509" data-name="Group 509" transform="translate(0.087 4.698)">
    <g id="Group_508" data-name="Group 508" transform="translate(3.834 0.026)">
      <path id="Path_84" data-name="Path 84" d="M.609,7.9H3.653L4.262,0,2.132,1.423,0,0Z" transform="matrix(-0.966, 0.259, -0.259, -0.966, 6.162, 7.634)" fill="#707070"/>
    </g>
    <g id="Group_507" data-name="Group 507" transform="translate(0 0)">
      <path id="Path_89" data-name="Path 89" d="M.609,7.9H3.653L4.262,0,2.132,1.423,0,0Z" transform="matrix(-0.966, -0.259, 0.259, -0.966, 4.117, 8.737)" fill="#707070"/>
    </g>
  </g>
  <g id="Path_92" data-name="Path 92" transform="translate(0 0)" fill="silver">
    <path d="M 4.871082782745361 8.741321563720703 C 2.736562728881836 8.741321563720703 1.00000274181366 7.004951477050781 1.00000274181366 4.87066125869751 C 1.00000274181366 2.736371278762817 2.736562728881836 1.000001311302185 4.871082782745361 1.000001311302185 C 7.005602836608887 1.000001311302185 8.742162704467773 2.736371278762817 8.742162704467773 4.87066125869751 C 8.742162704467773 7.004951477050781 7.005602836608887 8.741321563720703 4.871082782745361 8.741321563720703 Z" stroke="none"/>
    <path d="M 4.871082782745361 2.000001430511475 C 3.287962913513184 2.000001430511475 2.000002861022949 3.287771224975586 2.000002861022949 4.87066125869751 C 2.000002861022949 6.453551292419434 3.287962913513184 7.741321563720703 4.871082782745361 7.741321563720703 C 6.454202651977539 7.741321563720703 7.742162704467773 6.453551292419434 7.742162704467773 4.87066125869751 C 7.742162704467773 3.287771224975586 6.454202651977539 2.000001430511475 4.871082782745361 2.000001430511475 M 4.871082782745361 9.5367431640625e-07 C 7.56130313873291 9.5367431640625e-07 9.742162704467773 2.180671215057373 9.742162704467773 4.87066125869751 C 9.742162704467773 7.560651302337646 7.56130313873291 9.741321563720703 4.871082782745361 9.741321563720703 C 2.180862903594971 9.741321563720703 2.86102294921875e-06 7.560651302337646 2.86102294921875e-06 4.87066125869751 C 2.86102294921875e-06 2.180671215057373 2.180862903594971 9.5367431640625e-07 4.871082782745361 9.5367431640625e-07 Z" stroke="none" fill="#707070"/>
  </g>
</svg>
